<?xml version="1.0" encoding="UTF-8" standalone="no"?>
<svg width="50px" height="39px" viewBox="0 0 50 39" version="1.1" xmlns="http://www.w3.org/2000/svg" xmlns:xlink="http://www.w3.org/1999/xlink" xmlns:sketch="http://www.bohemiancoding.com/sketch/ns">
    <!-- Generator: Sketch 3.3.2 (12043) - http://www.bohemiancoding.com/sketch -->
    <title>SRoB Logo</title>
    <desc>Created with Sketch.</desc>
    <defs></defs>
    <g id="Page-1" stroke="none" stroke-width="1" fill="none" fill-rule="evenodd" sketch:type="MSPage">
        <path d="M7.73095479,0.174605906 L0.0287937709,11.3108448 L11.412744,27.6052405 L7.80569879,32.7515274 L3.5236479,26.622852 L0.699028893,28.6264116 L7.76932539,38.7746044 L13.5538747,30.5876769 L19.2295791,38.7746044 L25.0315519,30.5876769 L30.6803509,38.7336461 L36.4940062,30.6246577 L42.1786715,38.7336461 L50.0287675,27.6052405 L38.6212118,11.3108448 L42.1786715,6.19139986 L46.5705583,12.346857 L49.3756028,10.3557262 L42.1433053,0.174605906 L36.4940062,8.33772235 L30.7208168,0.174605906 L24.9944108,8.30626833 L19.2295794,0.174605906 L13.7468644,8.08140302 L7.73095479,0.174605906 Z M36.4803559,14.2621938 L27.1556961,27.6055771 L30.7232598,32.7590307 L36.5452175,24.6365772 L42.1947303,32.7590307 L45.8055961,27.6055771 L36.4803559,14.2621938 Z M30.7248476,6.16675637 L15.7032199,27.6012103 L19.2528276,32.7435883 L34.3518984,11.2924305 L30.7248476,6.16675637 Z M7.79715804,6.17819884 L4.22017269,11.3524616 L13.5451656,24.6487185 L22.9045093,11.2866487 L19.274655,6.17819884 L13.6151602,14.2595709 L7.79715804,6.17819884 Z" id="Path-400" fill="#D8D8D8" sketch:type="MSShapeGroup"></path>
    </g>
</svg>