<?xml version="1.0" encoding="UTF-8" standalone="no"?>
<svg width="212px" height="212px" viewBox="0 0 212 212" version="1.1" xmlns="http://www.w3.org/2000/svg" xmlns:xlink="http://www.w3.org/1999/xlink" xmlns:sketch="http://www.bohemiancoding.com/sketch/ns">
    <!-- Generator: Sketch 3.3.2 (12043) - http://www.bohemiancoding.com/sketch -->
    <title>Group Copy 4</title>
    <desc>Created with Sketch.</desc>
    <defs>
        <rect id="path-1" x="0" y="0" width="212" height="212"></rect>
    </defs>
    <g id="Page-1" stroke="none" stroke-width="1" fill="none" fill-rule="evenodd" sketch:type="MSPage">
        <g id="Group-Copy-4" sketch:type="MSLayerGroup">
            <mask id="mask-2" sketch:name="Mask" fill="white">
                <use xlink:href="#path-1"></use>
            </mask>
            <use id="Mask" fill="#FFFFFF" sketch:type="MSShapeGroup" xlink:href="#path-1"></use>
            <g id="Group" mask="url(#mask-2)" opacity="0.362290112" sketch:type="MSShapeGroup">
                <g transform="translate(-142.000000, -142.000000)">
                    <rect id="Rectangle-1-Copy-15" fill="#DEDEDE" transform="translate(159.789322, 124.433983) rotate(-45.000000) translate(-159.789322, -124.433983) " x="147.289322" y="111.933983" width="25" height="25"></rect>
                    <rect id="Rectangle-1-Copy-27" fill="#FDFCFC" transform="translate(177.466991, 142.111652) rotate(-45.000000) translate(-177.466991, -142.111652) " x="164.966991" y="129.611652" width="25" height="25"></rect>
                    <rect id="Rectangle-1-Copy-28" fill="#EDEDED" transform="translate(124.433983, 195.144661) rotate(-45.000000) translate(-124.433983, -195.144661) " x="111.933983" y="182.644661" width="25" height="25"></rect>
                    <rect id="Rectangle-1-Copy-31" fill="#DEDEDE" transform="translate(195.144661, 124.433983) rotate(-45.000000) translate(-195.144661, -124.433983) " x="182.644661" y="111.933983" width="25" height="25"></rect>
                    <rect id="Rectangle-1-Copy-20" fill="#DEDEDE" transform="translate(124.433983, 159.789322) rotate(-45.000000) translate(-124.433983, -159.789322) " x="111.933983" y="147.289322" width="25" height="25"></rect>
                    <rect id="Rectangle-1-Copy-32" fill="#F5F5F5" transform="translate(142.111652, 177.466991) rotate(-45.000000) translate(-142.111652, -177.466991) " x="129.611652" y="164.966991" width="25" height="25"></rect>
                    <rect id="Rectangle-1-Copy-6" fill="#DEDEDE" transform="translate(124.433983, 124.433983) rotate(-45.000000) translate(-124.433983, -124.433983) " x="111.933983" y="111.933983" width="25" height="25"></rect>
                    <rect id="Rectangle-1-Copy-24" fill="#DEDEDE" transform="translate(142.111652, 142.111652) rotate(-45.000000) translate(-142.111652, -142.111652) " x="129.611652" y="129.611652" width="25" height="25"></rect>
                    <rect id="Rectangle-1-Copy-36" fill="#DEDEDE" transform="translate(159.789322, 159.789322) rotate(-45.000000) translate(-159.789322, -159.789322) " x="147.289322" y="147.289322" width="25" height="25"></rect>
                    <rect id="Rectangle-1-Copy" fill="#DEDEDE" transform="translate(124.433983, 301.210678) scale(1, -1) rotate(-45.000000) translate(-124.433983, -301.210678) " x="111.933983" y="288.710678" width="25" height="25"></rect>
                    <rect id="Rectangle-1-Copy-7" fill="#EDEDED" transform="translate(230.500000, 195.144661) scale(1, -1) rotate(-45.000000) translate(-230.500000, -195.144661) " x="218" y="182.644661" width="25" height="25"></rect>
                    <rect id="Rectangle-1-Copy-15" fill="#DEDEDE" transform="translate(212.822330, 177.466991) scale(1, -1) rotate(-45.000000) translate(-212.822330, -177.466991) " x="200.32233" y="164.966991" width="25" height="25"></rect>
                    <rect id="Rectangle-1-Copy-27" fill="#EDEDED" transform="translate(195.144661, 159.789322) scale(1, -1) rotate(-45.000000) translate(-195.144661, -159.789322) " x="182.644661" y="147.289322" width="25" height="25"></rect>
                    <rect id="Rectangle-1-Copy-4" fill="#F5F5F5" transform="translate(177.466991, 248.177670) scale(1, -1) rotate(-45.000000) translate(-177.466991, -248.177670) " x="164.966991" y="235.67767" width="25" height="25"></rect>
                    <rect id="Rectangle-1-Copy-16" fill="#FDFCFC" transform="translate(159.789322, 230.500000) scale(1, -1) rotate(-45.000000) translate(-159.789322, -230.500000) " x="147.289322" y="218" width="25" height="25"></rect>
                    <rect id="Rectangle-1-Copy-28" fill="#EDEDED" transform="translate(142.111652, 212.822330) scale(1, -1) rotate(-45.000000) translate(-142.111652, -212.822330) " x="129.611652" y="200.32233" width="25" height="25"></rect>
                    <rect id="Rectangle-1-Copy-8" fill="#DEDEDE" transform="translate(283.533009, 142.111652) scale(1, -1) rotate(-45.000000) translate(-283.533009, -142.111652) " x="271.033009" y="129.611652" width="25" height="25"></rect>
                    <rect id="Rectangle-1-Copy-17" fill="#D8D8D8" transform="translate(265.855339, 124.433983) scale(1, -1) rotate(-45.000000) translate(-265.855339, -124.433983) " x="253.355339" y="111.933983" width="25" height="25"></rect>
                    <rect id="Rectangle-1-Copy-2" fill="#FDFCFC" transform="translate(142.111652, 283.533009) scale(1, -1) rotate(-45.000000) translate(-142.111652, -283.533009) " x="129.611652" y="271.033009" width="25" height="25"></rect>
                    <rect id="Rectangle-1-Copy-18" fill="#D8D8D8" transform="translate(124.433983, 265.855339) scale(1, -1) rotate(-45.000000) translate(-124.433983, -265.855339) " x="111.933983" y="253.355339" width="25" height="25"></rect>
                    <rect id="Rectangle-1-Copy-9" fill="#FDFCFC" transform="translate(248.177670, 177.466991) scale(1, -1) rotate(-45.000000) translate(-248.177670, -177.466991) " x="235.67767" y="164.966991" width="25" height="25"></rect>
                    <rect id="Rectangle-1-Copy-19" fill="#EDEDED" transform="translate(230.500000, 159.789322) scale(1, -1) rotate(-45.000000) translate(-230.500000, -159.789322) " x="218" y="147.289322" width="25" height="25"></rect>
                    <rect id="Rectangle-1-Copy-31" fill="#EDEDED" transform="translate(212.822330, 142.111652) scale(1, -1) rotate(-45.000000) translate(-212.822330, -142.111652) " x="200.32233" y="129.611652" width="25" height="25"></rect>
                    <rect id="Rectangle-1-Copy-5" fill="#EDEDED" transform="translate(195.144661, 230.500000) scale(1, -1) rotate(-45.000000) translate(-195.144661, -230.500000) " x="182.644661" y="218" width="25" height="25"></rect>
                    <rect id="Rectangle-1-Copy-20" fill="#DEDEDE" transform="translate(177.466991, 212.822330) scale(1, -1) rotate(-45.000000) translate(-177.466991, -212.822330) " x="164.966991" y="200.32233" width="25" height="25"></rect>
                    <rect id="Rectangle-1-Copy-32" fill="#FDFCFC" transform="translate(159.789322, 195.144661) scale(1, -1) rotate(-45.000000) translate(-159.789322, -195.144661) " x="147.289322" y="182.644661" width="25" height="25"></rect>
                    <rect id="Rectangle-1-Copy-10" fill="#FDFCFC" transform="translate(301.210678, 124.433983) scale(1, -1) rotate(-45.000000) translate(-301.210678, -124.433983) " x="288.710678" y="111.933983" width="25" height="25"></rect>
                    <rect id="Rectangle-1-Copy-3" fill="#DEDEDE" transform="translate(159.789322, 265.855339) scale(1, -1) rotate(-45.000000) translate(-159.789322, -265.855339) " x="147.289322" y="253.355339" width="25" height="25"></rect>
                    <rect id="Rectangle-1-Copy-22" fill="#EDEDED" transform="translate(142.111652, 248.177670) scale(1, -1) rotate(-45.000000) translate(-142.111652, -248.177670) " x="129.611652" y="235.67767" width="25" height="25"></rect>
                    <rect id="Rectangle-1-Copy-34" fill="#FDFCFC" transform="translate(124.433983, 230.500000) scale(1, -1) rotate(-45.000000) translate(-124.433983, -230.500000) " x="111.933983" y="218" width="25" height="25"></rect>
                    <rect id="Rectangle-1-Copy-11" fill="#DEDEDE" transform="translate(265.855339, 159.789322) scale(1, -1) rotate(-45.000000) translate(-265.855339, -159.789322) " x="253.355339" y="147.289322" width="25" height="25"></rect>
                    <rect id="Rectangle-1-Copy-23" fill="#EDEDED" transform="translate(248.177670, 142.111652) scale(1, -1) rotate(-45.000000) translate(-248.177670, -142.111652) " x="235.67767" y="129.611652" width="25" height="25"></rect>
                    <rect id="Rectangle-1-Copy-35" fill="#DEDEDE" transform="translate(230.500000, 124.433983) scale(1, -1) rotate(-45.000000) translate(-230.500000, -124.433983) " x="218" y="111.933983" width="25" height="25"></rect>
                    <rect id="Rectangle-1-Copy-6" fill="#DEDEDE" transform="translate(212.822330, 212.822330) scale(1, -1) rotate(-45.000000) translate(-212.822330, -212.822330) " x="200.32233" y="200.32233" width="25" height="25"></rect>
                    <rect id="Rectangle-1-Copy-24" fill="#FDFCFC" transform="translate(195.144661, 195.144661) scale(1, -1) rotate(-45.000000) translate(-195.144661, -195.144661) " x="182.644661" y="182.644661" width="25" height="25"></rect>
                    <rect id="Rectangle-1-Copy-36" fill="#DEDEDE" transform="translate(177.466991, 177.466991) scale(1, -1) rotate(-45.000000) translate(-177.466991, -177.466991) " x="164.966991" y="164.966991" width="25" height="25"></rect>
                    <rect id="Rectangle-1-Copy-13" fill="#DEDEDE" transform="translate(354.243687, 142.111652) scale(-1, -1) rotate(-45.000000) translate(-354.243687, -142.111652) " x="341.743687" y="129.611652" width="25" height="25"></rect>
                    <rect id="Rectangle-1-Copy-25" fill="#FDFCFC" transform="translate(336.566017, 124.433983) scale(-1, -1) rotate(-45.000000) translate(-336.566017, -124.433983) " x="324.066017" y="111.933983" width="25" height="25"></rect>
                    <rect id="Rectangle-1-Copy" fill="#F5F5F5" transform="translate(354.243687, 177.466991) scale(-1, -1) rotate(-45.000000) translate(-354.243687, -177.466991) " x="341.743687" y="164.966991" width="25" height="25"></rect>
                    <rect id="Rectangle-1-Copy-14" fill="#EDEDED" transform="translate(336.566017, 159.789322) scale(-1, -1) rotate(-45.000000) translate(-336.566017, -159.789322) " x="324.066017" y="147.289322" width="25" height="25"></rect>
                    <rect id="Rectangle-1-Copy-26" fill="#EDEDED" transform="translate(318.888348, 142.111652) scale(-1, -1) rotate(-45.000000) translate(-318.888348, -142.111652) " x="306.388348" y="129.611652" width="25" height="25"></rect>
                    <rect id="Rectangle-1-Copy-7" fill="#EDEDED" transform="translate(248.177670, 283.533009) scale(-1, -1) rotate(-45.000000) translate(-248.177670, -283.533009) " x="235.67767" y="271.033009" width="25" height="25"></rect>
                    <rect id="Rectangle-1-Copy-15" fill="#DEDEDE" transform="translate(230.500000, 265.855339) scale(-1, -1) rotate(-45.000000) translate(-230.500000, -265.855339) " x="218" y="253.355339" width="25" height="25"></rect>
                    <rect id="Rectangle-1-Copy-27" fill="#EDEDED" transform="translate(212.822330, 248.177670) scale(-1, -1) rotate(-45.000000) translate(-212.822330, -248.177670) " x="200.32233" y="235.67767" width="25" height="25"></rect>
                    <rect id="Rectangle-1-Copy-4" fill="#FDFCFC" transform="translate(301.210678, 230.500000) scale(-1, -1) rotate(-45.000000) translate(-301.210678, -230.500000) " x="288.710678" y="218" width="25" height="25"></rect>
                    <rect id="Rectangle-1-Copy-16" fill="#FDFCFC" transform="translate(283.533009, 212.822330) scale(-1, -1) rotate(-45.000000) translate(-283.533009, -212.822330) " x="271.033009" y="200.32233" width="25" height="25"></rect>
                    <rect id="Rectangle-1-Copy-28" fill="#EDEDED" transform="translate(265.855339, 195.144661) scale(-1, -1) rotate(-45.000000) translate(-265.855339, -195.144661) " x="253.355339" y="182.644661" width="25" height="25"></rect>
                    <rect id="Rectangle-1-Copy-8" fill="#EDEDED" transform="translate(195.144661, 336.566017) scale(-1, -1) rotate(-45.000000) translate(-195.144661, -336.566017) " x="182.644661" y="324.066017" width="25" height="25"></rect>
                    <rect id="Rectangle-1-Copy-17" fill="#D8D8D8" transform="translate(177.466991, 318.888348) scale(-1, -1) rotate(-45.000000) translate(-177.466991, -318.888348) " x="164.966991" y="306.388348" width="25" height="25"></rect>
                    <rect id="Rectangle-1-Copy-29" fill="#F5F5F5" transform="translate(159.789322, 301.210678) scale(-1, -1) rotate(-45.000000) translate(-159.789322, -301.210678) " x="147.289322" y="288.710678" width="25" height="25"></rect>
                    <rect id="Rectangle-1-Copy-2" fill="#FDFCFC" transform="translate(336.566017, 195.144661) scale(-1, -1) rotate(-45.000000) translate(-336.566017, -195.144661) " x="324.066017" y="182.644661" width="25" height="25"></rect>
                    <rect id="Rectangle-1-Copy-18" fill="#D8D8D8" transform="translate(318.888348, 177.466991) scale(-1, -1) rotate(-45.000000) translate(-318.888348, -177.466991) " x="306.388348" y="164.966991" width="25" height="25"></rect>
                    <rect id="Rectangle-1-Copy-30" fill="#DEDEDE" transform="translate(301.210678, 159.789322) scale(-1, -1) rotate(-45.000000) translate(-301.210678, -159.789322) " x="288.710678" y="147.289322" width="25" height="25"></rect>
                    <rect id="Rectangle-1-Copy-9" fill="#FDFCFC" transform="translate(230.500000, 301.210678) scale(-1, -1) rotate(-45.000000) translate(-230.500000, -301.210678) " x="218" y="288.710678" width="25" height="25"></rect>
                    <rect id="Rectangle-1-Copy-19" fill="#EDEDED" transform="translate(212.822330, 283.533009) scale(-1, -1) rotate(-45.000000) translate(-212.822330, -283.533009) " x="200.32233" y="271.033009" width="25" height="25"></rect>
                    <rect id="Rectangle-1-Copy-31" fill="#DEDEDE" transform="translate(195.144661, 265.855339) scale(-1, -1) rotate(-45.000000) translate(-195.144661, -265.855339) " x="182.644661" y="253.355339" width="25" height="25"></rect>
                    <rect id="Rectangle-1-Copy-5" fill="#EDEDED" transform="translate(283.533009, 248.177670) scale(-1, -1) rotate(-45.000000) translate(-283.533009, -248.177670) " x="271.033009" y="235.67767" width="25" height="25"></rect>
                    <rect id="Rectangle-1-Copy-20" fill="#DEDEDE" transform="translate(265.855339, 230.500000) scale(-1, -1) rotate(-45.000000) translate(-265.855339, -230.500000) " x="253.355339" y="218" width="25" height="25"></rect>
                    <rect id="Rectangle-1-Copy-32" fill="#FDFCFC" transform="translate(248.177670, 212.822330) scale(-1, -1) rotate(-45.000000) translate(-248.177670, -212.822330) " x="235.67767" y="200.32233" width="25" height="25"></rect>
                    <rect id="Rectangle-1-Copy-10" fill="#FDFCFC" transform="translate(177.466991, 354.243687) scale(-1, -1) rotate(-45.000000) translate(-177.466991, -354.243687) " x="164.966991" y="341.743687" width="25" height="25"></rect>
                    <rect id="Rectangle-1-Copy-21" fill="#EDEDED" transform="translate(159.789322, 336.566017) scale(-1, -1) rotate(-45.000000) translate(-159.789322, -336.566017) " x="147.289322" y="324.066017" width="25" height="25"></rect>
                    <rect id="Rectangle-1-Copy-33" fill="#FDFCFC" transform="translate(142.111652, 318.888348) scale(-1, -1) rotate(-45.000000) translate(-142.111652, -318.888348) " x="129.611652" y="306.388348" width="25" height="25"></rect>
                    <rect id="Rectangle-1-Copy-3" fill="#DEDEDE" transform="translate(318.888348, 212.822330) scale(-1, -1) rotate(-45.000000) translate(-318.888348, -212.822330) " x="306.388348" y="200.32233" width="25" height="25"></rect>
                    <rect id="Rectangle-1-Copy-22" fill="#EDEDED" transform="translate(301.210678, 195.144661) scale(-1, -1) rotate(-45.000000) translate(-301.210678, -195.144661) " x="288.710678" y="182.644661" width="25" height="25"></rect>
                    <rect id="Rectangle-1-Copy-34" fill="#FDFCFC" transform="translate(283.533009, 177.466991) scale(-1, -1) rotate(-45.000000) translate(-283.533009, -177.466991) " x="271.033009" y="164.966991" width="25" height="25"></rect>
                    <rect id="Rectangle-1-Copy-11" fill="#DEDEDE" transform="translate(212.822330, 318.888348) scale(-1, -1) rotate(-45.000000) translate(-212.822330, -318.888348) " x="200.32233" y="306.388348" width="25" height="25"></rect>
                    <rect id="Rectangle-1-Copy-23" fill="#FDFCFC" transform="translate(195.144661, 301.210678) scale(-1, -1) rotate(-45.000000) translate(-195.144661, -301.210678) " x="182.644661" y="288.710678" width="25" height="25"></rect>
                    <rect id="Rectangle-1-Copy-35" fill="#DEDEDE" transform="translate(177.466991, 283.533009) scale(-1, -1) rotate(-45.000000) translate(-177.466991, -283.533009) " x="164.966991" y="271.033009" width="25" height="25"></rect>
                    <rect id="Rectangle-1-Copy-6" fill="#DEDEDE" transform="translate(265.855339, 265.855339) scale(-1, -1) rotate(-45.000000) translate(-265.855339, -265.855339) " x="253.355339" y="253.355339" width="25" height="25"></rect>
                    <rect id="Rectangle-1-Copy-24" fill="#FDFCFC" transform="translate(248.177670, 248.177670) scale(-1, -1) rotate(-45.000000) translate(-248.177670, -248.177670) " x="235.67767" y="235.67767" width="25" height="25"></rect>
                    <rect id="Rectangle-1-Copy-36" fill="#DEDEDE" transform="translate(230.500000, 230.500000) scale(-1, -1) rotate(-45.000000) translate(-230.500000, -230.500000) " x="218" y="218" width="25" height="25"></rect>
                    <rect id="Rectangle-1-Copy-37" fill="#DEDEDE" transform="translate(142.111652, 354.243687) scale(-1, -1) rotate(-45.000000) translate(-142.111652, -354.243687) " x="129.611652" y="341.743687" width="25" height="25"></rect>
                    <rect id="Rectangle-1-Copy-38" fill="#EDEDED" transform="translate(124.433983, 336.566017) scale(-1, -1) rotate(-45.000000) translate(-124.433983, -336.566017) " x="111.933983" y="324.066017" width="25" height="25"></rect>
                    <rect id="Rectangle-1-Copy-7" fill="#EDEDED" transform="translate(265.855339, 301.210678) scale(-1, 1) rotate(-45.000000) translate(-265.855339, -301.210678) " x="253.355339" y="288.710678" width="25" height="25"></rect>
                    <rect id="Rectangle-1-Copy-15" fill="#DEDEDE" transform="translate(283.533009, 318.888348) scale(-1, 1) rotate(-45.000000) translate(-283.533009, -318.888348) " x="271.033009" y="306.388348" width="25" height="25"></rect>
                    <rect id="Rectangle-1-Copy-27" fill="#EDEDED" transform="translate(301.210678, 336.566017) scale(-1, 1) rotate(-45.000000) translate(-301.210678, -336.566017) " x="288.710678" y="324.066017" width="25" height="25"></rect>
                    <rect id="Rectangle-1-Copy-4" fill="#DEDEDE" transform="translate(318.888348, 248.177670) scale(-1, 1) rotate(-45.000000) translate(-318.888348, -248.177670) " x="306.388348" y="235.67767" width="25" height="25"></rect>
                    <rect id="Rectangle-1-Copy-16" fill="#FDFCFC" transform="translate(336.566017, 265.855339) scale(-1, 1) rotate(-45.000000) translate(-336.566017, -265.855339) " x="324.066017" y="253.355339" width="25" height="25"></rect>
                    <rect id="Rectangle-1-Copy-28" fill="#FDFCFC" transform="translate(354.243687, 283.533009) scale(-1, 1) rotate(-45.000000) translate(-354.243687, -283.533009) " x="341.743687" y="271.033009" width="25" height="25"></rect>
                    <rect id="Rectangle-1-Copy-8" fill="#EDEDED" transform="translate(212.822330, 354.243687) scale(-1, 1) rotate(-45.000000) translate(-212.822330, -354.243687) " x="200.32233" y="341.743687" width="25" height="25"></rect>
                    <rect id="Rectangle-1-Copy-2" fill="#EDEDED" transform="translate(354.243687, 212.822330) scale(-1, 1) rotate(-45.000000) translate(-354.243687, -212.822330) " x="341.743687" y="200.32233" width="25" height="25"></rect>
                    <rect id="Rectangle-1-Copy-9" fill="#FDFCFC" transform="translate(248.177670, 318.888348) scale(-1, 1) rotate(-45.000000) translate(-248.177670, -318.888348) " x="235.67767" y="306.388348" width="25" height="25"></rect>
                    <rect id="Rectangle-1-Copy-19" fill="#EDEDED" transform="translate(265.855339, 336.566017) scale(-1, 1) rotate(-45.000000) translate(-265.855339, -336.566017) " x="253.355339" y="324.066017" width="25" height="25"></rect>
                    <rect id="Rectangle-1-Copy-31" fill="#DEDEDE" transform="translate(283.533009, 354.243687) scale(-1, 1) rotate(-45.000000) translate(-283.533009, -354.243687) " x="271.033009" y="341.743687" width="25" height="25"></rect>
                    <rect id="Rectangle-1-Copy-5" fill="#EDEDED" transform="translate(301.210678, 265.855339) scale(-1, 1) rotate(-45.000000) translate(-301.210678, -265.855339) " x="288.710678" y="253.355339" width="25" height="25"></rect>
                    <rect id="Rectangle-1-Copy-20" fill="#DEDEDE" transform="translate(318.888348, 283.533009) scale(-1, 1) rotate(-45.000000) translate(-318.888348, -283.533009) " x="306.388348" y="271.033009" width="25" height="25"></rect>
                    <rect id="Rectangle-1-Copy-32" fill="#EDEDED" transform="translate(336.566017, 301.210678) scale(-1, 1) rotate(-45.000000) translate(-336.566017, -301.210678) " x="324.066017" y="288.710678" width="25" height="25"></rect>
                    <rect id="Rectangle-1-Copy-3" fill="#DEDEDE" transform="translate(336.566017, 230.500000) scale(-1, 1) rotate(-45.000000) translate(-336.566017, -230.500000) " x="324.066017" y="218" width="25" height="25"></rect>
                    <rect id="Rectangle-1-Copy-22" fill="#EDEDED" transform="translate(354.243687, 248.177670) scale(-1, 1) rotate(-45.000000) translate(-354.243687, -248.177670) " x="341.743687" y="235.67767" width="25" height="25"></rect>
                    <rect id="Rectangle-1-Copy-11" fill="#DEDEDE" transform="translate(230.500000, 336.566017) scale(-1, 1) rotate(-45.000000) translate(-230.500000, -336.566017) " x="218" y="324.066017" width="25" height="25"></rect>
                    <rect id="Rectangle-1-Copy-23" fill="#EDEDED" transform="translate(248.177670, 354.243687) scale(-1, 1) rotate(-45.000000) translate(-248.177670, -354.243687) " x="235.67767" y="341.743687" width="25" height="25"></rect>
                    <rect id="Rectangle-1-Copy-6" fill="#DEDEDE" transform="translate(283.533009, 283.533009) scale(-1, 1) rotate(-45.000000) translate(-283.533009, -283.533009) " x="271.033009" y="271.033009" width="25" height="25"></rect>
                    <rect id="Rectangle-1-Copy-24" fill="#FDFCFC" transform="translate(301.210678, 301.210678) scale(-1, 1) rotate(-45.000000) translate(-301.210678, -301.210678) " x="288.710678" y="288.710678" width="25" height="25"></rect>
                    <rect id="Rectangle-1-Copy-36" fill="#DEDEDE" transform="translate(318.888348, 318.888348) scale(-1, 1) rotate(-45.000000) translate(-318.888348, -318.888348) " x="306.388348" y="306.388348" width="25" height="25"></rect>
                    <rect id="Rectangle-1-Copy-7" fill="#EDEDED" transform="translate(318.888348, 354.243687) scale(-1, 1) rotate(-45.000000) translate(-318.888348, -354.243687) " x="306.388348" y="341.743687" width="25" height="25"></rect>
                    <rect id="Rectangle-1-Copy-5" fill="#FDFCFC" transform="translate(354.243687, 318.888348) scale(-1, 1) rotate(-45.000000) translate(-354.243687, -318.888348) " x="341.743687" y="306.388348" width="25" height="25"></rect>
                    <rect id="Rectangle-1-Copy-6" fill="#DEDEDE" transform="translate(336.566017, 336.566017) scale(-1, 1) rotate(-45.000000) translate(-336.566017, -336.566017) " x="324.066017" y="324.066017" width="25" height="25"></rect>
                    <rect id="Rectangle-1-Copy-39" fill="#DEDEDE" transform="translate(354.243687, 354.243687) scale(-1, 1) rotate(-45.000000) translate(-354.243687, -354.243687) " x="341.743687" y="341.743687" width="25" height="25"></rect>
                </g>
            </g>
        </g>
    </g>
</svg>