<?xml version="1.0" encoding="UTF-8" standalone="no"?>
<svg width="49px" height="100px" viewBox="0 0 49 100" version="1.1" xmlns="http://www.w3.org/2000/svg" xmlns:xlink="http://www.w3.org/1999/xlink" xmlns:sketch="http://www.bohemiancoding.com/sketch/ns">
    <!-- Generator: Sketch 3.3.2 (12043) - http://www.bohemiancoding.com/sketch -->
    <title>Group Copy 3</title>
    <desc>Created with Sketch.</desc>
    <defs></defs>
    <g id="Page-1" stroke="none" stroke-width="1" fill="none" fill-rule="evenodd" sketch:type="MSPage">
        <g id="Group-Copy-3" sketch:type="MSLayerGroup">
            <path d="M9.56134208,36.7133358 L0.00982140341,50.5027802 L13.0288977,68.8305465 L21.7068197,54.2709432 L9.56134208,36.7133358 Z" id="Path-45-Copy-8" fill="#9B9B9B" sketch:type="MSShapeGroup"></path>
            <path d="M24.1163847,15.5258202 L13.0019267,31.056504 L26.6917206,46.0424504 L35.382139,31.5662525 L24.1163847,15.5258202 Z" id="Path-45-Copy-9" fill="#9B9B9B" sketch:type="MSShapeGroup"></path>
            <path d="M21.7271046,54.28092 L12.3035002,69.8383167 L24.6104073,88.2021351 L33.504774,71.2415277 L21.7271046,54.28092 Z" id="Path-45-Copy-11" fill="#D9D8D8" sketch:type="MSShapeGroup"></path>
            <path d="M35.4080396,31.5108915 L26.6941333,45.9891621 L35.4080389,68.7661095 L48.6023793,49.7645483 L35.4080396,31.5108915 Z" id="Path-45-Copy-10" fill="#D9D8D8" sketch:type="MSShapeGroup"></path>
            <path d="M42.7747236,26.3718933 L23.9247072,0.00435763739 L4.04952485,28.9589835 L33.4471322,71.1635174 L24.1229526,84.4238354 L13.0140254,68.6875281 L5.75705732,73.7405564 L24.0520224,99.9959143 L44.3870839,71.1125437 L14.8786818,29.0139058 L24.0270622,15.7503571 L35.4252769,31.5785604 L42.7747236,26.3718933 Z" id="Path-81" fill="#000000" sketch:type="MSShapeGroup"></path>
        </g>
    </g>
</svg>